<?xml version="1.0" encoding="utf-8"?>
<!-- Generator: Adobe Illustrator 22.1.0, SVG Export Plug-In . SVG Version: 6.00 Build 0)  -->
<svg version="1.1" id="Layer_1" xmlns="http://www.w3.org/2000/svg" xmlns:xlink="http://www.w3.org/1999/xlink" x="0px" y="0px"
	 viewBox="0 0 148 43" style="enable-background:new 0 0 148 43;" xml:space="preserve">
<style type="text/css">
	.st0{fill:#F53855;}
	.st1{fill:#324D5C;}
</style>
<g>
	<g>
		<path class="st0" d="M126.1,27c-0.9-0.9-1.4-2-1.4-3.3l0-19c0-0.2-0.1-0.4-0.2-0.4c-0.1-0.1-0.2-0.2-0.4-0.2
			c-0.3,0-0.6,0.3-0.6,0.6v6.3h-6.3c-0.2,0-0.4,0.1-0.4,0.2c-0.1,0.1-0.2,0.2-0.2,0.4c0,0.3,0.3,0.6,0.6,0.6h6.3l0,4h-6.3
			c-2.6,0-4.6-2.1-4.6-4.6c0-1.2,0.5-2.4,1.4-3.3c0.9-0.9,2-1.4,3.3-1.4h2.2V4.6c0-2.6,2.1-4.6,4.6-4.6s4.6,2.1,4.6,4.6l0,19
			c0,0.2,0.1,0.4,0.2,0.4c0.1,0.1,0.2,0.2,0.4,0.2c0.2,0,0.4-0.1,0.4-0.2c0.1-0.1,0.2-0.2,0.2-0.4l0-6.3l6.3,0
			c0.3,0,0.6-0.3,0.6-0.6c0-0.2-0.1-0.4-0.2-0.4c-0.1-0.1-0.2-0.2-0.4-0.2H130l0-4h6.3c2.6,0,4.6,2.1,4.6,4.6c0,2.6-2.1,4.6-4.6,4.6
			l-2.2,0l0,2.2c0,1.2-0.5,2.4-1.4,3.3c-0.9,0.9-2,1.4-3.3,1.4C128.2,28.3,127,27.8,126.1,27z"/>
	</g>
	<g>
		<path class="st1" d="M47.9,32.7c0,6-4.3,10.3-9.9,10.3s-10-4.4-10-10.3c0-6,4.3-10.3,10-10.3S47.9,26.7,47.9,32.7z M42.9,32.7
			c0-4-2.5-5.6-5-5.6c-2.5,0-5,1.6-5,5.6c0,3.4,1.9,5.6,5,5.6C41,38.3,42.9,36.1,42.9,32.7z"/>
		<path class="st1" d="M118.8,32.7c0,6-4.3,10.3-9.9,10.3c-5.6,0-10-4.4-10-10.3c0-6,4.3-10.3,10-10.3
			C114.4,22.4,118.8,26.7,118.8,32.7z M113.8,32.7c0-4-2.5-5.6-5-5.6c-2.5,0-5,1.6-5,5.6c0,3.4,1.9,5.6,5,5.6S113.8,36.1,113.8,32.7
			z"/>
		<path class="st1" d="M73.7,22.4c-5.5,0-9.8,4.3-9.8,10.3c0,6,4.3,10.3,9.8,10.3c2.7,0,5.2-1.1,6.9-2.9c0.1-0.1,0.1-0.4,0-0.5
			l-2.4-2.4c-0.1-0.1-0.4-0.1-0.5,0c-0.9,1.1-2.3,1.7-4,1.7c-2.7,0-4.6-1.6-5.2-4.3c0-0.2,0.1-0.4,0.3-0.4l14.2,0
			c0.2,0,0.3-0.1,0.3-0.3c0-0.4,0.1-0.8,0.1-1.2C83.5,26.7,79.2,22.4,73.7,22.4z M73.7,26.5c2,0,3.9,1,4.9,3.2
			c0.1,0.2-0.1,0.5-0.3,0.5h-9.1c-0.2,0-0.4-0.2-0.3-0.5C69.8,27.4,71.8,26.5,73.7,26.5z"/>
		<g>
			<g>
				<path class="st1" d="M23.8,32.8C23,32,22.1,31.5,21,31l-2.3-1.2c-1-0.5-1.3-0.6-1.6-0.8c-0.3-0.2-0.6-0.6-0.6-1.1
					c0-1.4,1.4-2,2.3-2c1.1,0,2,0.8,2.2,1.8c0,0.1,0.1,0.2,0.3,0.2c0.8,0,3,0,3,0c0.2,0,0.3-0.1,0.3-0.3c0-0.4,0-1.2-0.3-1.9
					c-0.6-1.4-1.3-2-2-2.4c-1.1-0.7-2.2-1-3.6-1c-2.4,0-3.9,0.9-4.8,1.9c-1,1.1-1.6,2.6-1.6,4.2c0,1.2,0.4,2.3,1.4,3.3
					c0.7,0.7,1.8,1.2,2.7,1.7l1.7,0.8c0.7,0.3,1.4,0.6,1.9,1.2c0.4,0.5,0.6,0.9,0.6,1.5c0,0.6-0.3,1.2-0.6,1.5
					c-0.4,0.4-1.2,0.6-1.9,0.6c-1.1,0-1.8-0.3-2.1-0.7c-0.7-0.7-0.8-1.1-0.9-1.7c0-0.1-0.1-0.3-0.3-0.3l-3.1,0
					c-0.2,0-0.3,0.1-0.3,0.3c0,0.4,0.1,1.2,0.3,1.8c0.5,1.7,1.1,2.4,2.2,3.2c1.4,1.1,3,1.2,4.2,1.2c2,0,3.9-0.5,5.5-2.2
					c1.1-1.2,1.7-2.7,1.7-4.4C25.2,35,24.8,33.8,23.8,32.8z"/>
			</g>
		</g>
		<g>
			<path class="st1" d="M60,27.4l2.7-2.7c0.1-0.1,0.1-0.3,0-0.5c-1.2-1.1-2.8-1.8-4.5-1.8l0,0l0,0c-3.7,0-6.8,3.1-6.8,6.8V43h4.5
				l0-13.7c0-1.1,0.7-2.2,1.8-2.4c0.7-0.1,1.3,0.1,1.8,0.5C59.7,27.5,59.9,27.5,60,27.4z"/>
		</g>
		<g>
			<path class="st1" d="M94.1,38c-0.5,0.4-1.1,0.6-1.8,0.4c-1.1-0.2-1.8-1.2-1.8-2.4l0-8.1c0-0.2,0.2-0.3,0.3-0.3h3.8
				c0.2,0,0.3-0.2,0.3-0.3v-3.5c0-0.2-0.2-0.3-0.3-0.3h-3.8c-0.2,0-0.3-0.2-0.3-0.3v-3.5c0-0.2-0.2-0.3-0.3-0.3h-3.8
				c-0.2,0-0.3,0.2-0.3,0.3v16.5c0,3.7,3,6.8,6.8,6.8l0,0l0,0c1.7,0,3.3-0.7,4.5-1.8c0.1-0.1,0.1-0.3,0-0.5L94.5,38
				C94.4,37.9,94.2,37.9,94.1,38z"/>
		</g>
	</g>
</g>
</svg>
