<svg id="Layer_1" data-name="Layer 1" xmlns="http://www.w3.org/2000/svg" viewBox="0 0 471.57 156.44"><title>Soreto_logo_white</title><path d="M602.11,318a16.79,16.79,0,0,1-5-12V236.83a2.26,2.26,0,0,0-2.26-2.26,2.27,2.27,0,0,0-2.26,2.26v22.76H569.85a2.26,2.26,0,0,0-2.26,2.26,2.27,2.27,0,0,0,2.26,2.26h22.78v14.64H569.85a16.9,16.9,0,1,1,0-33.8H578v-8.12a16.9,16.9,0,0,1,33.8,0v69.23a2.26,2.26,0,1,0,4.52,0V283.31H639.1a2.27,2.27,0,0,0,2.26-2.26,2.26,2.26,0,0,0-2.26-2.26H616.33V264.14H639.1a16.9,16.9,0,0,1,0,33.8H631v8.12A16.9,16.9,0,0,1,602.11,318Z" transform="translate(-184.43 -219.93)" fill="#fff"/><path d="M317.39,338.83c0,21.72-15.77,37.55-36.2,37.55S245,360.54,245,338.83c0-21.89,15.77-37.38,36.2-37.38S317.39,316.93,317.39,338.83Zm-18,.16c0-14.61-9.16-20.54-18.17-20.54S263,324.38,263,339c0,12.33,7,20.39,18.18,20.39S299.36,351.31,299.36,339Z" transform="translate(-184.43 -219.93)" fill="#fff"/><path d="M575.33,338.83c0,21.72-15.77,37.55-36.2,37.55s-36.2-15.83-36.2-37.55c0-21.89,15.77-37.38,36.2-37.38S575.33,316.93,575.33,338.83Zm-18,.16c0-14.61-9.16-20.54-18.17-20.54S521,324.38,521,339c0,12.33,7,20.39,18.18,20.39S557.31,351.31,557.31,339Z" transform="translate(-184.43 -219.93)" fill="#fff"/><path d="M411.44,301.44c-20,0-35.5,15.49-35.5,37.38,0,21.72,15.46,37.55,35.5,37.55a34.46,34.46,0,0,0,25.13-10.55,1.28,1.28,0,0,0,0-1.78l-8.82-8.82a1.25,1.25,0,0,0-1.84.11c-3.41,4-8.34,6.23-14.44,6.23-9.9,0-16.73-6-18.93-15.54a1.27,1.27,0,0,1,1.24-1.53h51.67a1.27,1.27,0,0,0,1.27-1.12,42.69,42.69,0,0,0,.24-4.54C446.94,316.93,431.48,301.44,411.44,301.44Zm0,14.82c7.14,0,14.35,3.52,17.72,11.71a1.26,1.26,0,0,1-1.18,1.7H394.9a1.26,1.26,0,0,1-1.18-1.7C397.09,319.78,404.3,316.26,411.44,316.26Z" transform="translate(-184.43 -219.93)" fill="#fff"/><path d="M229.7,339.16c-2.69-2.86-6.23-4.72-9.93-6.57l-8.42-4.21c-3.76-2-4.66-2.23-5.74-3a4.9,4.9,0,0,1-2.17-3.86c0-5.06,5.07-7.22,8.21-7.22a8.12,8.12,0,0,1,7.95,6.62,1.09,1.09,0,0,0,1,.9c2.74,0,11,0,11,0a1.07,1.07,0,0,0,1.07-1,17.64,17.64,0,0,0-1.18-7c-2.26-5.18-4.82-7.1-7.18-8.61a22.19,22.19,0,0,0-13.13-3.7c-8.76,0-14.15,3.37-17.34,6.74a22.13,22.13,0,0,0-5.89,15.15,15.45,15.45,0,0,0,5.05,12c2.69,2.69,6.57,4.55,9.77,6.06l6.06,2.86a21.82,21.82,0,0,1,7.07,4.38,7.65,7.65,0,0,1,2.19,5.39,8.36,8.36,0,0,1-2.36,5.56,9.93,9.93,0,0,1-6.73,2.36c-3.87,0-6.38-1.09-7.7-2.44a9.34,9.34,0,0,1-3.28-6.07,1.09,1.09,0,0,0-1.06-.93l-11.43-.08a1.07,1.07,0,0,0-1.09,1.11,28.1,28.1,0,0,0,1,6.65c1.89,6.1,4.08,8.65,8.12,11.68,5.05,3.87,10.78,4.55,15.32,4.55,7.41,0,14.31-1.85,19.87-7.92a23.54,23.54,0,0,0,6.23-16.16A17.49,17.49,0,0,0,229.7,339.16Z" transform="translate(-184.43 -219.93)" fill="#fff"/><path d="M361.38,319.69l10-10a1.17,1.17,0,0,0,0-1.68,24.64,24.64,0,0,0-16.48-6.44l-0.14-.14-0.14.14A24.75,24.75,0,0,0,330,326.34v50h16.5v-49.7a8.57,8.57,0,0,1,6.71-8.58,8.18,8.18,0,0,1,6.61,1.64A1.18,1.18,0,0,0,361.38,319.69Z" transform="translate(-184.43 -219.93)" fill="#fff"/><path d="M485.52,358.1a8.18,8.18,0,0,1-6.6,1.63,8.57,8.57,0,0,1-6.7-8.57v-29.4a1.25,1.25,0,0,1,1.25-1.25h14a1.25,1.25,0,0,0,1.25-1.25V306.6a1.26,1.26,0,0,0-1.26-1.26h-14a1.25,1.25,0,0,1-1.25-1.25v-12.7a1.25,1.25,0,0,0-1.25-1.25H457a1.25,1.25,0,0,0-1.25,1.25v60.09a24.75,24.75,0,0,0,24.61,24.75l0.14,0.14,0.14-.14a24.64,24.64,0,0,0,16.46-6.42,1.17,1.17,0,0,0,0-1.68l-10-10A1.18,1.18,0,0,0,485.52,358.1Z" transform="translate(-184.43 -219.93)" fill="#fff"/></svg>